<mxfile host="Electron" modified="2024-01-11T13:51:38.498Z" agent="Mozilla/5.0 (Macintosh; Intel Mac OS X 10_15_7) AppleWebKit/537.36 (KHTML, like Gecko) draw.io/22.1.18 Chrome/120.0.6099.199 Electron/28.1.2 Safari/537.36" etag="oQ0wu35ovS5-cMn1xmMe" version="22.1.18" type="device">
  <diagram name="Page-1" id="g9Wh7jbXMtFGpYpXREA9">
    <mxGraphModel dx="2208" dy="1528" grid="1" gridSize="10" guides="1" tooltips="1" connect="1" arrows="1" fold="1" page="0" pageScale="1" pageWidth="1100" pageHeight="850" math="0" shadow="0">
      <root>
        <mxCell id="0" />
        <mxCell id="taEEi7gpU__Aitk_ZK9J-41" value="bounding box" style="" parent="0" />
        <mxCell id="taEEi7gpU__Aitk_ZK9J-40" value="" style="rounded=0;whiteSpace=wrap;html=1;fillColor=none;strokeColor=none;" parent="taEEi7gpU__Aitk_ZK9J-41" vertex="1">
          <mxGeometry x="-220" y="-30" width="840" height="350" as="geometry" />
        </mxCell>
        <mxCell id="taEEi7gpU__Aitk_ZK9J-32" value="secure tunnel" style="locked=1;" parent="0" />
        <mxCell id="taEEi7gpU__Aitk_ZK9J-10" value="" style="shape=cylinder3;whiteSpace=wrap;html=1;boundedLbl=1;backgroundOutline=1;size=15;rotation=90;fillColor=#E6D0DE;opacity=50;" parent="taEEi7gpU__Aitk_ZK9J-32" vertex="1">
          <mxGeometry x="159.86" y="-16.1" width="67.8" height="517.5" as="geometry" />
        </mxCell>
        <mxCell id="taEEi7gpU__Aitk_ZK9J-6" value="" style="sketch=0;aspect=fixed;pointerEvents=1;shadow=0;dashed=0;html=1;strokeColor=none;labelPosition=center;verticalLabelPosition=bottom;verticalAlign=top;align=center;fillColor=#FF0000;shape=mxgraph.mscae.enterprise.lock" parent="taEEi7gpU__Aitk_ZK9J-32" vertex="1">
          <mxGeometry x="420" y="260" width="39" height="50" as="geometry" />
        </mxCell>
        <mxCell id="taEEi7gpU__Aitk_ZK9J-15" value="" style="points=[[0.015,0.015,0],[0.25,0,0],[0.5,0,0],[0.75,0,0],[0.985,0.015,0],[1,0.22,0],[1,0.44,0],[1,0.67,0],[0.985,0.89,0],[0,0.22,0],[0,0.44,0],[0,0.67,0],[0.015,0.89,0],[0.25,0.91,0],[0.5,0.91,0],[0.785,0.955,0]];verticalLabelPosition=bottom;sketch=0;html=1;verticalAlign=top;aspect=fixed;align=center;pointerEvents=1;shape=mxgraph.cisco19.x509_certificate;fillColor=#CC00CC;strokeColor=none;" parent="taEEi7gpU__Aitk_ZK9J-32" vertex="1">
          <mxGeometry x="511" y="120" width="31.58" height="30" as="geometry" />
        </mxCell>
        <mxCell id="taEEi7gpU__Aitk_ZK9J-8" value="" style="points=[[0.015,0.015,0],[0.25,0,0],[0.5,0,0],[0.75,0,0],[0.985,0.015,0],[1,0.22,0],[1,0.44,0],[1,0.67,0],[0.985,0.89,0],[0,0.22,0],[0,0.44,0],[0,0.67,0],[0.015,0.89,0],[0.25,0.91,0],[0.5,0.91,0],[0.785,0.955,0]];verticalLabelPosition=bottom;sketch=0;html=1;verticalAlign=top;aspect=fixed;align=center;pointerEvents=1;shape=mxgraph.cisco19.x509_certificate;fillColor=#994C00;strokeColor=none;" parent="taEEi7gpU__Aitk_ZK9J-32" vertex="1">
          <mxGeometry x="-143" y="120" width="31.58" height="30" as="geometry" />
        </mxCell>
        <mxCell id="taEEi7gpU__Aitk_ZK9J-38" style="edgeStyle=isometricEdgeStyle;rounded=0;orthogonalLoop=1;jettySize=auto;html=1;exitX=0.875;exitY=0.5;exitDx=0;exitDy=0;exitPerimeter=0;entryX=0;entryY=0.44;entryDx=0;entryDy=0;entryPerimeter=0;elbow=vertical;endArrow=none;endFill=0;strokeWidth=3;dashed=1;dashPattern=1 4;" parent="taEEi7gpU__Aitk_ZK9J-32" source="taEEi7gpU__Aitk_ZK9J-17" target="taEEi7gpU__Aitk_ZK9J-15" edge="1">
          <mxGeometry relative="1" as="geometry">
            <mxPoint x="430" y="80" as="targetPoint" />
          </mxGeometry>
        </mxCell>
        <mxCell id="taEEi7gpU__Aitk_ZK9J-17" value="" style="ellipse;shape=cloud;whiteSpace=wrap;html=1;fillColor=none;strokeWidth=3;" parent="taEEi7gpU__Aitk_ZK9J-32" vertex="1">
          <mxGeometry x="93.76" y="-40" width="200" height="140" as="geometry" />
        </mxCell>
        <mxCell id="taEEi7gpU__Aitk_ZK9J-9" value="" style="sketch=0;pointerEvents=1;shadow=0;dashed=0;html=1;strokeColor=default;fillColor=#00CC00;labelPosition=center;verticalLabelPosition=bottom;verticalAlign=top;outlineConnect=0;align=center;shape=mxgraph.office.servers.certificate_authority;" parent="taEEi7gpU__Aitk_ZK9J-32" vertex="1">
          <mxGeometry x="162.57999999999998" y="-10" width="62.37" height="80" as="geometry" />
        </mxCell>
        <mxCell id="taEEi7gpU__Aitk_ZK9J-37" style="edgeStyle=isometricEdgeStyle;rounded=0;orthogonalLoop=1;jettySize=auto;html=1;entryX=0.16;entryY=0.55;entryDx=0;entryDy=0;entryPerimeter=0;strokeWidth=3;endArrow=none;endFill=0;dashed=1;dashPattern=1 4;exitX=1;exitY=0.44;exitDx=0;exitDy=0;exitPerimeter=0;" parent="taEEi7gpU__Aitk_ZK9J-32" source="taEEi7gpU__Aitk_ZK9J-8" target="taEEi7gpU__Aitk_ZK9J-17" edge="1">
          <mxGeometry relative="1" as="geometry" />
        </mxCell>
        <mxCell id="1" value="base" style="locked=1;" parent="0" />
        <mxCell id="taEEi7gpU__Aitk_ZK9J-1" value="" style="shape=process;whiteSpace=wrap;html=1;backgroundOutline=1;strokeWidth=2;fillColor=none;" parent="1" vertex="1">
          <mxGeometry x="-220" y="212.5" width="120" height="60" as="geometry" />
        </mxCell>
        <mxCell id="taEEi7gpU__Aitk_ZK9J-3" value="" style="endArrow=classicThin;html=1;rounded=0;strokeWidth=4;endFill=1;" parent="1" source="taEEi7gpU__Aitk_ZK9J-11" edge="1">
          <mxGeometry width="50" height="50" relative="1" as="geometry">
            <mxPoint x="230" y="470" as="sourcePoint" />
            <mxPoint x="480" y="240" as="targetPoint" />
          </mxGeometry>
        </mxCell>
        <mxCell id="taEEi7gpU__Aitk_ZK9J-12" value="" style="shape=process;whiteSpace=wrap;html=1;backgroundOutline=1;strokeWidth=2;fillColor=none;" parent="1" vertex="1">
          <mxGeometry x="500" y="212.65" width="120" height="60" as="geometry" />
        </mxCell>
        <mxCell id="taEEi7gpU__Aitk_ZK9J-11" value="&lt;font style=&quot;font-size: 14px;&quot;&gt;&lt;b&gt;message&lt;/b&gt;&lt;/font&gt;" style="sketch=0;outlineConnect=0;fontColor=#232F3E;gradientColor=none;strokeColor=#232F3E;fillColor=none;dashed=0;verticalLabelPosition=bottom;verticalAlign=top;align=center;html=1;fontSize=12;fontStyle=0;aspect=fixed;shape=mxgraph.aws4.resourceIcon;resIcon=mxgraph.aws4.run_command;opacity=50;" parent="1" vertex="1">
          <mxGeometry x="163.76" y="212.5" width="60" height="60" as="geometry" />
        </mxCell>
        <mxCell id="taEEi7gpU__Aitk_ZK9J-20" value="" style="endArrow=none;html=1;rounded=0;strokeWidth=4;" parent="1" target="taEEi7gpU__Aitk_ZK9J-11" edge="1">
          <mxGeometry width="50" height="50" relative="1" as="geometry">
            <mxPoint x="-90" y="240" as="sourcePoint" />
            <mxPoint x="-40" y="190" as="targetPoint" />
          </mxGeometry>
        </mxCell>
        <mxCell id="taEEi7gpU__Aitk_ZK9J-13" value="&lt;font style=&quot;font-size: 18px;&quot;&gt;&lt;b&gt;B&lt;/b&gt;&lt;/font&gt;" style="shape=umlActor;verticalLabelPosition=bottom;verticalAlign=top;html=1;outlineConnect=0;strokeWidth=2;" parent="1" vertex="1">
          <mxGeometry x="545" y="120" width="30" height="60" as="geometry" />
        </mxCell>
        <mxCell id="taEEi7gpU__Aitk_ZK9J-2" value="&lt;font style=&quot;font-size: 18px;&quot;&gt;&lt;b&gt;A&lt;/b&gt;&lt;/font&gt;" style="shape=umlActor;verticalLabelPosition=bottom;verticalAlign=top;html=1;outlineConnect=0;strokeWidth=2;" parent="1" vertex="1">
          <mxGeometry x="-175" y="120" width="30" height="60" as="geometry" />
        </mxCell>
        <mxCell id="taEEi7gpU__Aitk_ZK9J-30" value="secure message" style="locked=1;" parent="0" />
        <mxCell id="taEEi7gpU__Aitk_ZK9J-31" value="" style="sketch=0;aspect=fixed;pointerEvents=1;shadow=0;dashed=0;html=1;strokeColor=none;labelPosition=center;verticalLabelPosition=bottom;verticalAlign=top;align=center;fillColor=#FF0000;shape=mxgraph.mscae.enterprise.lock" parent="taEEi7gpU__Aitk_ZK9J-30" vertex="1">
          <mxGeometry x="200" y="250" width="15.6" height="20" as="geometry" />
        </mxCell>
        <mxCell id="taEEi7gpU__Aitk_ZK9J-24" value="" style="sketch=0;aspect=fixed;pointerEvents=1;shadow=0;dashed=0;html=1;strokeColor=none;labelPosition=center;verticalLabelPosition=bottom;verticalAlign=top;align=center;fillColor=#00188D;shape=mxgraph.mscae.enterprise.key_permissions" parent="taEEi7gpU__Aitk_ZK9J-30" vertex="1">
          <mxGeometry x="575.01" y="120" width="15.6" height="30" as="geometry" />
        </mxCell>
        <mxCell id="taEEi7gpU__Aitk_ZK9J-21" value="" style="sketch=0;aspect=fixed;pointerEvents=1;shadow=0;dashed=0;html=1;strokeColor=none;labelPosition=center;verticalLabelPosition=bottom;verticalAlign=top;align=center;fillColor=#00188D;shape=mxgraph.mscae.enterprise.key_permissions" parent="taEEi7gpU__Aitk_ZK9J-30" vertex="1">
          <mxGeometry x="-190" y="121.80000000000001" width="14.66" height="28.2" as="geometry" />
        </mxCell>
        <mxCell id="taEEi7gpU__Aitk_ZK9J-33" value="trust boundary" style="locked=1;" parent="0" visible="0" />
        <mxCell id="taEEi7gpU__Aitk_ZK9J-7" value="" style="endArrow=none;dashed=1;html=1;strokeWidth=4;rounded=0;strokeColor=#FF0000;" parent="taEEi7gpU__Aitk_ZK9J-33" edge="1">
          <mxGeometry width="50" height="50" relative="1" as="geometry">
            <mxPoint x="300" y="312.5" as="sourcePoint" />
            <mxPoint x="300" y="172.5" as="targetPoint" />
          </mxGeometry>
        </mxCell>
        <mxCell id="taEEi7gpU__Aitk_ZK9J-39" value="crypto engine" style="locked=1;" parent="0" />
        <mxCell id="taEEi7gpU__Aitk_ZK9J-25" value="" style="verticalLabelPosition=bottom;html=1;verticalAlign=top;align=center;strokeColor=none;fillColor=#000000;shape=mxgraph.azure.automation;pointerEvents=1;" parent="taEEi7gpU__Aitk_ZK9J-39" vertex="1">
          <mxGeometry x="530.0100000000001" y="219.99999999999994" width="50" height="45" as="geometry" />
        </mxCell>
        <mxCell id="taEEi7gpU__Aitk_ZK9J-23" value="" style="verticalLabelPosition=bottom;html=1;verticalAlign=top;align=center;strokeColor=none;fillColor=#000000;shape=mxgraph.azure.automation;pointerEvents=1;" parent="taEEi7gpU__Aitk_ZK9J-39" vertex="1">
          <mxGeometry x="-190" y="221.79999999999995" width="50" height="45" as="geometry" />
        </mxCell>
      </root>
    </mxGraphModel>
  </diagram>
</mxfile>
